<?xml version="1.0" encoding="UTF-8" standalone="no"?>
<!DOCTYPE svg PUBLIC "-//W3C//DTD SVG 1.1//EN" "http://www.w3.org/Graphics/SVG/1.1/DTD/svg11.dtd">
<svg width="100%" height="100%" viewBox="0 0 7087 4905" version="1.1" xmlns="http://www.w3.org/2000/svg" xmlns:xlink="http://www.w3.org/1999/xlink" xml:space="preserve" xmlns:serif="http://www.serif.com/" style="fill-rule:evenodd;clip-rule:evenodd;stroke-linejoin:round;stroke-miterlimit:2;">
    <g id="Logo" transform="matrix(10.0373,0,0,10.0373,-2397.46,-3364.35)">
        <g transform="matrix(6.26872,0,0,6.26872,-798.384,-1499.65)">
            <g transform="matrix(47.6543,0,0,47.6543,165.704,326.055)">
                <path d="M-0.005,-0L0.31,-0.7L0.438,-0.7L0.754,-0L0.618,-0L0.347,-0.631L0.399,-0.631L0.129,-0L-0.005,-0ZM0.14,-0.162L0.175,-0.264L0.553,-0.264L0.588,-0.162L0.14,-0.162Z" style="fill:white;fill-rule:nonzero;"/>
            </g>
            <g transform="matrix(47.6543,0,0,47.6543,201.375,326.055)">
                <path d="M0.094,-0L0.094,-0.7L0.201,-0.7L0.507,-0.189L0.451,-0.189L0.752,-0.7L0.859,-0.7L0.86,-0L0.737,-0L0.736,-0.507L0.762,-0.507L0.506,-0.08L0.448,-0.08L0.188,-0.507L0.218,-0.507L0.218,-0L0.094,-0Z" style="fill:white;fill-rule:nonzero;"/>
            </g>
            <g transform="matrix(47.6543,0,0,47.6543,246.164,326.055)">
                <path d="M0.266,-0L0.266,-0.277L0.295,-0.197L-0.009,-0.7L0.13,-0.7L0.374,-0.295L0.296,-0.295L0.542,-0.7L0.67,-0.7L0.366,-0.197L0.396,-0.277L0.396,-0L0.266,-0Z" style="fill:white;fill-rule:nonzero;"/>
            </g>
        </g>
        <g transform="matrix(6.50735,0,0,6.50735,-692.139,-1301.02)">
            <g>
                <g>
                    <g transform="matrix(47.6543,0,0,47.6543,165.704,326.055)">
                        <path d="M0.122,0.007C0.1,0.007 0.08,-0.001 0.064,-0.017C0.048,-0.033 0.04,-0.052 0.04,-0.076C0.04,-0.101 0.048,-0.121 0.064,-0.136C0.08,-0.152 0.1,-0.159 0.122,-0.159C0.145,-0.159 0.164,-0.152 0.18,-0.136C0.196,-0.121 0.204,-0.101 0.204,-0.076C0.204,-0.052 0.196,-0.033 0.18,-0.017C0.164,-0.001 0.145,0.007 0.122,0.007Z" style="fill:rgb(134,188,37);fill-rule:nonzero;"/>
                    </g>
                    <g transform="matrix(47.6543,0,0,47.6543,177.328,326.055)">
                        <path d="M0.098,-0L0.098,-0.7L0.421,-0.7C0.504,-0.7 0.567,-0.684 0.611,-0.651C0.655,-0.618 0.677,-0.574 0.677,-0.518C0.677,-0.481 0.668,-0.449 0.651,-0.423C0.634,-0.396 0.611,-0.376 0.583,-0.362C0.555,-0.348 0.525,-0.341 0.493,-0.341L0.511,-0.375C0.549,-0.375 0.583,-0.368 0.613,-0.353C0.644,-0.339 0.668,-0.319 0.686,-0.291C0.704,-0.264 0.713,-0.23 0.713,-0.19C0.713,-0.13 0.69,-0.083 0.644,-0.05C0.599,-0.017 0.531,-0 0.441,-0L0.098,-0ZM0.217,-0.096L0.435,-0.096C0.486,-0.096 0.525,-0.105 0.552,-0.121C0.579,-0.138 0.592,-0.164 0.592,-0.201C0.592,-0.237 0.579,-0.264 0.552,-0.281C0.525,-0.298 0.486,-0.307 0.435,-0.307L0.208,-0.307L0.208,-0.402L0.409,-0.402C0.456,-0.402 0.492,-0.411 0.518,-0.427C0.543,-0.444 0.556,-0.469 0.556,-0.503C0.556,-0.537 0.543,-0.562 0.518,-0.579C0.492,-0.595 0.456,-0.604 0.409,-0.604L0.217,-0.604L0.217,-0.096Z" style="fill:white;fill-rule:nonzero;"/>
                    </g>
                    <g transform="matrix(47.6543,0,0,47.6543,213.527,326.055)">
                        <path d="M0.422,0.01C0.367,0.01 0.317,0.001 0.271,-0.017C0.225,-0.035 0.185,-0.06 0.151,-0.093C0.117,-0.125 0.091,-0.163 0.072,-0.207C0.053,-0.25 0.044,-0.298 0.044,-0.35C0.044,-0.402 0.053,-0.45 0.072,-0.493C0.091,-0.537 0.117,-0.575 0.151,-0.607C0.185,-0.64 0.225,-0.665 0.271,-0.683C0.317,-0.701 0.367,-0.71 0.421,-0.71C0.476,-0.71 0.526,-0.701 0.572,-0.683C0.617,-0.665 0.657,-0.64 0.691,-0.608C0.725,-0.576 0.751,-0.538 0.77,-0.494C0.789,-0.45 0.798,-0.402 0.798,-0.35C0.798,-0.298 0.789,-0.25 0.77,-0.206C0.751,-0.162 0.725,-0.124 0.691,-0.092C0.657,-0.06 0.617,-0.035 0.572,-0.017C0.526,0.001 0.476,0.01 0.422,0.01ZM0.421,-0.104C0.457,-0.104 0.489,-0.11 0.519,-0.122C0.549,-0.134 0.575,-0.151 0.597,-0.173C0.619,-0.195 0.636,-0.222 0.649,-0.252C0.661,-0.281 0.667,-0.314 0.667,-0.35C0.667,-0.386 0.661,-0.419 0.649,-0.449C0.636,-0.478 0.619,-0.504 0.597,-0.527C0.575,-0.549 0.549,-0.566 0.519,-0.578C0.489,-0.59 0.457,-0.596 0.421,-0.596C0.386,-0.596 0.353,-0.59 0.323,-0.578C0.293,-0.566 0.267,-0.549 0.245,-0.526C0.223,-0.504 0.206,-0.478 0.193,-0.448C0.181,-0.419 0.175,-0.386 0.175,-0.35C0.175,-0.315 0.181,-0.282 0.193,-0.252C0.205,-0.222 0.223,-0.196 0.245,-0.173C0.267,-0.151 0.293,-0.134 0.323,-0.122C0.353,-0.11 0.386,-0.104 0.421,-0.104Z" style="fill:white;fill-rule:nonzero;"/>
                    </g>
                </g>
            </g>
        </g>
    </g>
</svg>
